<svg version="1.1" id="Слой_1" xmlns="http://www.w3.org/2000/svg" x="0" y="0" viewBox="0 0 1000 800" xml:space="preserve"><style>.st0{fill:#4d5e6e}</style><path class="st0" d="M465.1 369.8c-10.9 0-20 3.6-27.1 10.9-7 7.1-10.8 16.5-10.8 27.4 0 11.4 3.9 20.5 11.7 27.7 7.7 7.1 17.8 10.6 30.2 10.6 9.6 0 19.1-2.5 27.6-6.3v-14.7c-8.2 4.7-17.8 7.1-27.6 7.1-12.1 0-23.6-5.2-26.1-19.2h56.7c.4-1.3.7-5.1.7-8.6 0-7-1.7-15.7-9-23.8-6.4-7.2-15.9-11.1-26.3-11.1zm-.4 14.4c9.3 0 19.2 5.7 20.7 17.1h-42.3c2.2-11.7 11.7-17.1 21.6-17.1zM713.5 370.5c-7.6 0-16.6 3.2-22.2 8.9V372h-15.2v72.9h15.2v-36.6c0-17.1 10.6-22.9 23-22.9.7 0 1.8.1 2.8.3v-14.9c-1.3-.2-2.9-.3-3.6-.3zM546.4 407.4l27.1-35.6h-18.4l-26.7 35.9 28.3 37h17.9L546 407.5l.4-.1zM527.9 342.2h-15.2v102.5h15.2V342.2zM331 394.3v-3.9h-47.5v14.4h31.6v21.3c-7 2.8-14.6 4.2-22.5 4.2-10.9 0-20-3.6-27.1-10.6-6.7-6.8-10.2-15.3-10.2-26.1 0-10.6 3.4-19.1 10.2-26.1 6.9-6.9 17.5-10.6 31.1-10.6 10.6 0 20.8 2.5 29.6 7.1v-16.6c-9.2-4.1-19.1-6.3-29.6-6.3-17.2.1-32.9 5.5-42.4 15.2-9.9 9.9-15.3 22.6-15.3 37.3 0 14.7 5.4 27.4 15.3 37.5 9.9 9.9 23.2 15 38.3 15 13.8 0 27-3.9 38.3-10.8v-41h.2zM407.1 380.4c-6.6-6.8-15.7-10.6-25.8-10.6-10.9 0-20 3.6-27.1 10.9-7 7.1-10.8 16.5-10.8 27.4 0 11.4 3.9 20.5 11.7 27.7 2.3 2 4.8 3.9 7.6 5.4 6.4 3.5 14 5.2 22.7 5.2 9.6 0 19.1-2.5 27.6-6.3v-14.7c-1.9 1-3.8 2-5.7 2.8-6.7 2.9-14.3 4.2-21.9 4.2-12.1 0-23.6-5.2-26.1-19.2h56.5c.4-1.3.7-5.1.7-8.6 0-7-1.7-15.7-9-23.8-.1.1-.3-.1-.4-.4zm-5.7 20.9h-42.3c2.3-11.5 11.8-17.1 21.6-17.1 9.3 0 19.2 5.7 20.7 17.1zM830.3 371.8h-15.2v72.9h15.2v-72.9zM822.7 340c-2.8 0-5.1.9-6.8 2.8-1.9 1.9-2.8 4.2-2.8 7s.9 5.1 2.8 7c1.9 1.9 4.1 2.8 6.8 2.8 2.8 0 5.1-.9 6.9-2.8 1.9-1.9 2.8-4.2 2.8-7s-.9-5.1-2.8-7c-1.8-1.9-4.1-2.8-6.9-2.8zM980 424.4c0-4.5-1.2-8-3.4-10.9-4.5-6.4-13.3-9.6-22.9-12.1-3.9-1-8.3-2-11.5-3.8-2.6-1.6-3.9-3.2-3.9-6.1h-.3.3c0-5 6.1-7.3 13.6-7.3 8.9 0 17.3 2 24.8 6.1v-15.2c-7.7-3.4-16.2-5.1-24.8-5.1-7.7 0-15.7 1.7-21 5.8-5.3 4.1-7.4 9.5-7.4 16.3 0 14.1 12.2 19.5 26.2 23 3.9 1 8.3 2 11.5 3.8 2.6 1.6 3.9 3.2 3.9 6.1 0 5.1-5.4 7.6-14.3 7.6-9.5 0-18.4-1.6-26.4-4.5v14.1c8.3 2.8 17.2 4.4 26.4 4.4 8.3 0 15.7-2 21.4-6 1.9-1.3 3.4-2.9 4.5-4.5 2.3-3.2 3.3-7.2 3.3-11.7zM649.7 391c6.7-5.1 9.9-11.4 9.9-20 0-8-3.2-15.2-8.9-20.5-5.7-5.4-14.3-8.2-22.5-8.2H585v102.3h46.8c8.6 0 17.1-2.8 23-8.3 5.8-5.4 8.9-12.7 8.9-21 .1-10.1-5-19.5-14-24.3zm-49-34.7h29.2c8.2 0 14.3 6.4 14.3 14.6 0 8.3-6.3 14.6-14.3 14.6h-29.2v-29.2zm31.9 74.5h-31.9v-31.5h31.9c8.5 0 15.2 6.8 15.2 15.7 0 8.8-6.7 15.8-15.2 15.8zM880 383.9c7 0 11.5 2.5 14.3 6.3 2.8 3.8 3.4 8.6 3.4 12.5v42h15.2v-42.6c0-8.9-2.2-16.5-7.3-22.3l-.3-.3c-5.1-5.7-12-9.6-21.3-9.6-8.9 0-16.2 3.2-21.4 7.4v-5.5h-15.2v72.9h15.2v-42c0-3.9 1-8.3 3.8-12 1.3-1.6 2.6-3.1 4.4-4.1 2.3-1.7 5.4-2.7 9.2-2.7zM782.9 378.8c-6.4-6-15.5-8.9-24.5-8.9-10.5 0-19.4 3.6-26.8 11.1-2 2-3.8 4.1-5.2 6.4-.3.4-.6 1-.9 1.5-3.4 5.7-5 12.2-5 19.4 0 10.6 3.6 19.8 11.1 27.3 7.4 7.4 16.3 11.1 26.8 11.1 9.2 0 18.2-2.9 24.5-9v7.1h15.2v-72.9h-15.2v6.9zm-6.8 46.8c-4.5 4.5-10.2 6.7-16.9 6.7-6.7 0-12.4-2.2-16.9-6.7-4.5-4.7-6.7-10.3-6.7-17.2 0-6.8 2.2-12.5 6.7-17.1 4.5-4.7 10.2-6.8 16.9-6.8 6.7 0 12.4 2.2 16.9 6.8 4.5 4.5 6.7 10.2 6.7 17.1 0 6.8-2.2 12.5-6.7 17.2zM117.8 334.5c-2.8 3.9-4.8 10.1-4.8 19V365c0 3.7 1.3 7.3 3.6 10.3l11.2 14c.5-.1 1.1-.1 1.6-.1 6 0 10.9 4.9 10.9 10.9s-4.9 10.9-10.9 10.9-10.9-4.9-10.9-10.9c0-1.4.3-2.7.7-4l-11.2-14c-3.9-4.8-6-10.9-6-17.1v-11.5c0-10.3 2.2-19.1 6.9-25.5 4.8-6.6 12-10.1 20.5-10.1 13.7 0 25.5 8.4 30.4 20.4 12.5 3.7 21.6 15.2 21.6 28.9 0 2.8-.1 5.7-.9 8.7 8.7 4.6 14.5 13.7 14.5 24.2s-5.9 19.6-14.5 24.2c.8 2.9.9 5.9.9 8.6 0 13.7-9.1 25.2-21.6 28.9-4.9 11.9-16.7 20.4-30.4 20.4-3.6 0-7-.6-10.3-1.6l3.4-10.4c2.1.7 4.4 1.1 6.8 1.1 9.9 0 18.3-6.6 21-15.6l1-3.2 3.3-.6c9-1.6 15.8-9.4 15.8-18.8 0-4.8-.4-6.5-1.7-8.1-1.8-2.2-4.2-3-6.9-2.7-2.8.3-5.7 1.8-7.6 4.3l-6.4 8c.5 1.2.7 2.6.7 4 0 6-4.9 10.9-10.9 10.9s-10.9-4.9-10.9-10.9 4.9-10.9 10.9-10.9c.6 0 1.1 0 1.6.1l6.4-8c3.7-4.7 9.3-7.7 15-8.3 4.7-.5 9.7.6 13.7 3.9 5.7-2.6 9.7-8.3 9.7-15s-4-12.4-9.7-15c-4 3.2-9 4.4-13.7 3.9-5.8-.6-11.3-3.7-15-8.3l-6.4-8c-.5.1-1.1.1-1.6.1-6 0-10.9-4.9-10.9-10.9s4.9-10.9 10.9-10.9 10.9 4.9 10.9 10.9c0 1.4-.3 2.7-.7 4l6.4 8c2 2.5 4.9 4 7.6 4.3 2.6.3 5.1-.5 6.9-2.7 1.3-1.6 1.7-3.3 1.7-8.1 0-9.4-6.8-17.3-15.8-18.8l-3.3-.6-1-3.2c-2.7-9-11.1-15.6-21-15.6-5.1-.6-8.8 1.4-11.5 5z"/><path class="st0" d="M67.3 434.3c-.5 1.2-.7 2.6-.7 4 0 6 4.9 10.9 10.9 10.9s10.9-4.9 10.9-10.9-4.9-10.9-10.9-10.9c-.6 0-1.1 0-1.6.1l-6.4-8c-3.7-4.7-9.3-7.7-15-8.3-4.7-.5-9.7.6-13.7 3.9-5.7-2.6-9.7-8.3-9.7-15s4-12.4 9.7-15c4 3.2 9 4.4 13.7 3.9 5.8-.6 11.3-3.7 15-8.3l6.4-8c.5.1 1.1.1 1.6.1 6 0 10.9-4.9 10.9-10.9S83.5 351 77.5 351s-10.9 4.9-10.9 10.9c0 1.4.3 2.8.7 4l-6.4 8c-2 2.5-4.9 4-7.6 4.3-2.6.3-5.1-.5-6.9-2.7-1.3-1.6-1.7-3.3-1.7-8.1 0-9.4 6.8-17.3 15.8-18.8l3.3-.6 1-3.2c2.7-9 11.1-15.6 21-15.6 2.4 0 4.7.4 6.8 1.1l3.4-10.4c-3.2-1.1-6.7-1.6-10.3-1.6-13.7 0-25.5 8.4-30.4 20.4-12.5 3.7-21.6 15.2-21.6 28.9 0 2.8.1 5.7.9 8.6C25.9 380.4 20 389.5 20 400s5.9 19.6 14.5 24.2c-.8 2.9-.9 5.9-.9 8.6 0 13.7 9.1 25.2 21.6 28.9 4.9 11.9 16.7 20.4 30.4 20.4 8.5 0 15.6-3.5 20.5-10.1 4.7-6.4 6.9-15.2 6.9-25.5V435c0-6.2-2.1-12.2-6-17.1l-11.2-14c.5-1.2.7-2.6.7-4 0-6-4.9-10.9-10.9-10.9s-10.9 4.9-10.9 10.9 4.9 10.9 10.9 10.9c.6 0 1.1 0 1.6-.1l11.2 14c2.3 2.9 3.6 6.5 3.6 10.3v11.5c0 8.9-1.9 15.1-4.8 19-2.7 3.6-6.5 5.6-11.7 5.6-9.9 0-18.3-6.6-21-15.6l-1-3.2-3.3-.6c-9-1.6-15.8-9.4-15.8-18.8 0-4.8.4-6.5 1.7-8.1 1.8-2.2 4.2-3 6.9-2.7 2.8.3 5.7 1.8 7.6 4.3l6.7 7.9z"/></svg>